<svg xmlns="http://www.w3.org/2000/svg" version="1.1" xmlns:xlink="http://www.w3.org/1999/xlink"
  xmlns:svgjs="http://svgjs.dev/svgjs" viewBox="0 0 22.74353029432329 2.1164429615309874">
  <g transform="matrix(1,0,0,1,2.1441063232282938,0.5212214807654937)">
    <g>
      <path
        d=" M 0.7365 0.3569999999999999 Q 0.7365 0.3569999999999999 0.711 0.34199999999999986 Q 0.6855 0.32699999999999985 0.6435 0.3082499999999998 Q 0.6015 0.28949999999999987 0.552 0.27449999999999986 Q 0.5025000000000001 0.25949999999999984 0.4545 0.25949999999999984 Q 0.417 0.25949999999999984 0.393 0.27149999999999985 Q 0.369 0.28349999999999986 0.369 0.31199999999999983 Q 0.369 0.33899999999999986 0.393 0.3554999999999998 Q 0.417 0.3719999999999998 0.46125 0.38549999999999984 Q 0.5055000000000001 0.3989999999999998 0.5670000000000001 0.41849999999999987 Q 0.666 0.4484999999999998 0.738 0.4874999999999998 Q 0.81 0.5264999999999999 0.849 0.5872499999999998 Q 0.888 0.6479999999999999 0.888 0.7484999999999998 Q 0.888 0.8444999999999998 0.8535 0.9097499999999998 Q 0.8190000000000001 0.9749999999999999 0.7605000000000001 1.0139999999999998 Q 0.7020000000000001 1.053 0.63 1.07025 Q 0.558 1.0875 0.483 1.0875 Q 0.40650000000000003 1.0875 0.32325 1.0717499999999998 Q 0.24 1.0559999999999998 0.162 1.0282499999999999 Q 0.084 1.0005 0.0195 0.9629999999999999 L 0.1455 0.7064999999999999 Q 0.1455 0.7064999999999999 0.17550000000000002 0.7244999999999998 Q 0.20550000000000002 0.7424999999999998 0.255 0.7649999999999999 Q 0.3045 0.7874999999999999 0.36525 0.8054999999999999 Q 0.426 0.8234999999999999 0.4875 0.8234999999999999 Q 0.5355 0.8234999999999999 0.55425 0.8107499999999999 Q 0.5730000000000001 0.7979999999999998 0.5730000000000001 0.7769999999999999 Q 0.5730000000000001 0.7454999999999998 0.54 0.7282499999999998 Q 0.507 0.7109999999999999 0.45375 0.6952499999999998 Q 0.4005 0.6794999999999998 0.336 0.6584999999999999 Q 0.243 0.6269999999999998 0.183 0.5872499999999998 Q 0.123 0.5474999999999999 0.0945 0.4927499999999998 Q 0.066 0.43799999999999983 0.066 0.3599999999999999 Q 0.066 0.24149999999999983 0.1215 0.1619999999999998 Q 0.177 0.0824999999999998 0.26775 0.04124999999999979 Q 0.3585 -2.220446049250313e-16 0.4635 -2.220446049250313e-16 Q 0.5415 -2.220446049250313e-16 0.61425 0.018749999999999822 Q 0.687 0.03749999999999987 0.75075 0.06449999999999978 Q 0.8145 0.0914999999999998 0.8625 0.11549999999999983 L 0.7365 0.3569999999999999 M 1.497006591796875 1.0829999999999997 Q 1.369506591796875 1.0829999999999997 1.278006591796875 1.041 Q 1.1865065917968751 0.9989999999999999 1.128756591796875 0.9254999999999999 Q 1.071006591796875 0.8519999999999999 1.044006591796875 0.7567499999999998 Q 1.017006591796875 0.6614999999999998 1.017006591796875 0.5564999999999999 L 1.017006591796875 0.008999999999999897 L 1.309506591796875 0.008999999999999897 L 1.309506591796875 0.5564999999999999 Q 1.309506591796875 0.6089999999999998 1.320006591796875 0.6569999999999998 Q 1.330506591796875 0.7049999999999998 1.353006591796875 0.7424999999999998 Q 1.375506591796875 0.7799999999999998 1.410756591796875 0.8017499999999999 Q 1.4460065917968752 0.8234999999999999 1.497006591796875 0.8234999999999999 Q 1.549506591796875 0.8234999999999999 1.5855065917968751 0.8017499999999999 Q 1.6215065917968752 0.7799999999999998 1.643256591796875 0.7417499999999999 Q 1.665006591796875 0.7034999999999998 1.675506591796875 0.6554999999999999 Q 1.686006591796875 0.6074999999999998 1.686006591796875 0.5564999999999999 L 1.686006591796875 0.008999999999999897 L 1.978506591796875 0.008999999999999897 L 1.978506591796875 0.5564999999999999 Q 1.978506591796875 0.6674999999999998 1.9492565917968752 0.7634999999999998 Q 1.920006591796875 0.8594999999999998 1.861506591796875 0.9314999999999998 Q 1.803006591796875 1.0034999999999998 1.712256591796875 1.0432499999999998 Q 1.6215065917968752 1.0829999999999997 1.497006591796875 1.0829999999999997 M 2.16147802734375 1.0739999999999998 L 2.16147802734375 0.008999999999999897 L 2.65047802734375 0.008999999999999897 Q 2.7284780273437503 0.008999999999999897 2.79447802734375 0.04049999999999976 Q 2.86047802734375 0.07199999999999984 2.90847802734375 0.12524999999999986 Q 2.95647802734375 0.17849999999999977 2.98272802734375 0.24449999999999983 Q 3.0089780273437503 0.3104999999999998 3.0089780273437503 0.3779999999999998 Q 3.0089780273437503 0.4394999999999998 2.9909780273437505 0.49649999999999983 Q 2.9729780273437503 0.5534999999999999 2.9384780273437503 0.6007499999999999 Q 2.9039780273437503 0.6479999999999999 2.8559780273437503 0.6824999999999999 L 3.0809780273437504 1.0739999999999998 L 2.75997802734375 1.0739999999999998 L 2.57247802734375 0.7469999999999999 L 2.45397802734375 0.7469999999999999 L 2.45397802734375 1.0739999999999998 L 2.16147802734375 1.0739999999999998 M 2.45397802734375 0.4919999999999999 L 2.6384780273437505 0.4919999999999999 Q 2.6564780273437503 0.4919999999999999 2.67297802734375 0.4784999999999998 Q 2.68947802734375 0.46499999999999986 2.70072802734375 0.4394999999999998 Q 2.71197802734375 0.4139999999999998 2.71197802734375 0.3779999999999998 Q 2.71197802734375 0.3404999999999998 2.69922802734375 0.31574999999999986 Q 2.6864780273437505 0.2909999999999998 2.6677280273437503 0.27749999999999986 Q 2.64897802734375 0.2639999999999998 2.63097802734375 0.2639999999999998 L 2.45397802734375 0.2639999999999998 L 2.45397802734375 0.4919999999999999 M 3.3419714355468755 0.008999999999999897 L 3.532471435546875 0.44399999999999984 L 3.7274714355468754 0.008999999999999897 L 4.045471435546876 0.008999999999999897 L 3.6779714355468753 0.7214999999999998 L 3.6779714355468753 1.0739999999999998 L 3.3869714355468754 1.0739999999999998 L 3.3869714355468754 0.7184999999999999 L 3.0254714355468755 0.008999999999999897 L 3.3419714355468755 0.008999999999999897 M 4.277962646484376 0.008999999999999897 L 4.604962646484376 0.008999999999999897 L 4.943962646484375 1.0739999999999998 L 4.646962646484376 1.0739999999999998 L 4.582462646484376 0.8654999999999998 L 4.298962646484376 0.8654999999999998 L 4.235962646484375 1.0739999999999998 L 3.9374626464843754 1.0739999999999998 L 4.277962646484376 0.008999999999999897 M 4.535962646484376 0.6704999999999999 L 4.441462646484376 0.2954999999999999 L 4.342462646484376 0.6704999999999999 L 4.535962646484376 0.6704999999999999 M 5.354870361328125 1.0739999999999998 L 5.354870361328125 0.008999999999999897 L 5.647370361328125 0.008999999999999897 L 5.647370361328125 0.4139999999999998 L 5.971370361328125 0.008999999999999897 L 6.301370361328125 0.008999999999999897 L 5.914370361328125 0.4859999999999999 L 6.328370361328124 1.0739999999999998 L 5.992370361328125 1.0739999999999998 L 5.728370361328125 0.6824999999999999 L 5.647370361328125 0.7664999999999998 L 5.647370361328125 1.0739999999999998 L 5.354870361328125 1.0739999999999998 M 6.4048740234375 1.0739999999999998 L 6.4048740234375 0.008999999999999897 L 6.8938740234375 0.008999999999999897 Q 6.9718740234375005 0.008999999999999897 7.0378740234375 0.04049999999999976 Q 7.1038740234375 0.07199999999999984 7.1518740234375 0.12524999999999986 Q 7.1998740234375 0.17849999999999977 7.2261240234375 0.24449999999999983 Q 7.2523740234375005 0.3104999999999998 7.2523740234375005 0.3779999999999998 Q 7.2523740234375005 0.4394999999999998 7.234374023437501 0.49649999999999983 Q 7.216374023437501 0.5534999999999999 7.1818740234375005 0.6007499999999999 Q 7.1473740234375 0.6479999999999999 7.0993740234375 0.6824999999999999 L 7.3243740234375005 1.0739999999999998 L 7.003374023437501 1.0739999999999998 L 6.815874023437501 0.7469999999999999 L 6.697374023437501 0.7469999999999999 L 6.697374023437501 1.0739999999999998 L 6.4048740234375 1.0739999999999998 M 6.697374023437501 0.4919999999999999 L 6.881874023437501 0.4919999999999999 Q 6.8998740234375004 0.4919999999999999 6.9163740234375 0.4784999999999998 Q 6.932874023437501 0.46499999999999986 6.9441240234375 0.4394999999999998 Q 6.955374023437501 0.4139999999999998 6.955374023437501 0.3779999999999998 Q 6.955374023437501 0.3404999999999998 6.9426240234375 0.31574999999999986 Q 6.929874023437501 0.2909999999999998 6.9111240234375 0.27749999999999986 Q 6.8923740234375 0.2639999999999998 6.8743740234375 0.2639999999999998 L 6.697374023437501 0.2639999999999998 L 6.697374023437501 0.4919999999999999 M 7.432355712890626 1.0739999999999998 L 7.432355712890626 0.008999999999999897 L 7.724855712890626 0.008999999999999897 L 7.724855712890626 1.0739999999999998 L 7.432355712890626 1.0739999999999998 M 8.567880615234376 0.3569999999999999 Q 8.567880615234376 0.3569999999999999 8.542380615234375 0.34199999999999986 Q 8.516880615234376 0.32699999999999985 8.474880615234376 0.3082499999999998 Q 8.432880615234376 0.28949999999999987 8.383380615234376 0.27449999999999986 Q 8.333880615234376 0.25949999999999984 8.285880615234376 0.25949999999999984 Q 8.248380615234376 0.25949999999999984 8.224380615234375 0.27149999999999985 Q 8.200380615234376 0.28349999999999986 8.200380615234376 0.31199999999999983 Q 8.200380615234376 0.33899999999999986 8.224380615234375 0.3554999999999998 Q 8.248380615234376 0.3719999999999998 8.292630615234376 0.38549999999999984 Q 8.336880615234376 0.3989999999999998 8.398380615234375 0.41849999999999987 Q 8.497380615234375 0.4484999999999998 8.569380615234376 0.4874999999999998 Q 8.641380615234375 0.5264999999999999 8.680380615234375 0.5872499999999998 Q 8.719380615234376 0.6479999999999999 8.719380615234376 0.7484999999999998 Q 8.719380615234376 0.8444999999999998 8.684880615234375 0.9097499999999998 Q 8.650380615234376 0.9749999999999999 8.591880615234375 1.0139999999999998 Q 8.533380615234377 1.053 8.461380615234376 1.07025 Q 8.389380615234376 1.0875 8.314380615234375 1.0875 Q 8.237880615234376 1.0875 8.154630615234376 1.0717499999999998 Q 8.071380615234375 1.0559999999999998 7.993380615234376 1.0282499999999999 Q 7.915380615234375 1.0005 7.8508806152343755 0.9629999999999999 L 7.976880615234376 0.7064999999999999 Q 7.976880615234376 0.7064999999999999 8.006880615234376 0.7244999999999998 Q 8.036880615234375 0.7424999999999998 8.086380615234376 0.7649999999999999 Q 8.135880615234376 0.7874999999999999 8.196630615234376 0.8054999999999999 Q 8.257380615234375 0.8234999999999999 8.318880615234375 0.8234999999999999 Q 8.366880615234376 0.8234999999999999 8.385630615234376 0.8107499999999999 Q 8.404380615234375 0.7979999999999998 8.404380615234375 0.7769999999999999 Q 8.404380615234375 0.7454999999999998 8.371380615234376 0.7282499999999998 Q 8.338380615234376 0.7109999999999999 8.285130615234376 0.6952499999999998 Q 8.231880615234376 0.6794999999999998 8.167380615234375 0.6584999999999999 Q 8.074380615234375 0.6269999999999998 8.014380615234376 0.5872499999999998 Q 7.954380615234376 0.5474999999999999 7.925880615234376 0.4927499999999998 Q 7.8973806152343755 0.43799999999999983 7.8973806152343755 0.3599999999999999 Q 7.8973806152343755 0.24149999999999983 7.952880615234376 0.1619999999999998 Q 8.008380615234376 0.0824999999999998 8.099130615234376 0.04124999999999979 Q 8.189880615234376 -2.220446049250313e-16 8.294880615234376 -2.220446049250313e-16 Q 8.372880615234376 -2.220446049250313e-16 8.445630615234375 0.018749999999999822 Q 8.518380615234376 0.03749999999999987 8.582130615234377 0.06449999999999978 Q 8.645880615234375 0.0914999999999998 8.693880615234375 0.11549999999999983 L 8.567880615234376 0.3569999999999999 M 9.80538720703125 0.008999999999999897 L 9.80538720703125 1.0739999999999998 L 9.51288720703125 1.0739999999999998 L 9.51288720703125 0.6569999999999998 L 9.15588720703125 0.6569999999999998 L 9.15588720703125 1.0739999999999998 L 8.86338720703125 1.0739999999999998 L 8.86338720703125 0.008999999999999897 L 9.15588720703125 0.008999999999999897 L 9.15588720703125 0.4019999999999998 L 9.51288720703125 0.4019999999999998 L 9.51288720703125 0.008999999999999897 L 9.80538720703125 0.008999999999999897 M 10.295887207031251 0.5504999999999999 L 10.295887207031251 1.0739999999999998 L 10.00338720703125 1.0739999999999998 L 10.00338720703125 0.008999999999999897 L 10.23138720703125 0.008999999999999897 L 10.65888720703125 0.5504999999999999 L 10.65888720703125 0.008999999999999897 L 10.951387207031251 0.008999999999999897 L 10.951387207031251 1.0739999999999998 L 10.718887207031251 1.0739999999999998 L 10.295887207031251 0.5504999999999999 M 11.395429687500002 0.008999999999999897 L 11.722429687500002 0.008999999999999897 L 12.061429687500002 1.0739999999999998 L 11.764429687500002 1.0739999999999998 L 11.699929687500001 0.8654999999999998 L 11.4164296875 0.8654999999999998 L 11.353429687500002 1.0739999999999998 L 11.054929687500001 1.0739999999999998 L 11.395429687500002 0.008999999999999897 M 11.653429687500001 0.6704999999999999 L 11.558929687500001 0.2954999999999999 L 11.4599296875 0.6704999999999999 L 11.653429687500001 0.6704999999999999 M 13.277837402343753 1.0739999999999998 L 13.277837402343753 0.5129999999999998 L 13.099337402343753 0.9074999999999999 L 12.943337402343753 0.9074999999999999 L 12.764837402343753 0.5129999999999998 L 12.764837402343753 1.0739999999999998 L 12.472337402343753 1.0739999999999998 L 12.472337402343753 0.008999999999999897 L 12.791837402343752 0.008999999999999897 L 13.021337402343752 0.5099999999999998 L 13.252337402343752 0.008999999999999897 L 13.570337402343753 0.008999999999999897 L 13.570337402343753 1.0739999999999998 L 13.277837402343753 1.0739999999999998 M 14.248343261718754 1.0829999999999997 Q 14.126843261718752 1.0829999999999997 14.027843261718754 1.0372499999999998 Q 13.928843261718754 0.9914999999999998 13.857593261718753 0.9142499999999998 Q 13.786343261718754 0.8369999999999999 13.748093261718752 0.7402499999999999 Q 13.709843261718753 0.6434999999999998 13.709843261718753 0.5399999999999998 Q 13.709843261718753 0.4334999999999999 13.750343261718752 0.3374999999999998 Q 13.790843261718754 0.24149999999999983 13.863593261718753 0.16574999999999984 Q 13.936343261718752 0.08999999999999986 14.036093261718753 0.046499999999999764 Q 14.135843261718753 0.0029999999999998916 14.254343261718754 0.0029999999999998916 Q 14.375843261718753 0.0029999999999998916 14.474843261718753 0.04874999999999985 Q 14.573843261718753 0.0944999999999998 14.644343261718753 0.17249999999999988 Q 14.714843261718753 0.25049999999999983 14.753093261718753 0.34724999999999984 Q 14.791343261718753 0.44399999999999984 14.791343261718753 0.5459999999999998 Q 14.791343261718753 0.6509999999999998 14.751593261718753 0.7469999999999999 Q 14.711843261718753 0.8429999999999999 14.639093261718752 0.9187499999999998 Q 14.566343261718753 0.9944999999999998 14.467343261718753 1.0387499999999998 Q 14.368343261718753 1.0829999999999997 14.248343261718754 1.0829999999999997 M 14.006843261718753 0.5429999999999998 Q 14.006843261718753 0.5969999999999998 14.021843261718754 0.6472499999999999 Q 14.036843261718753 0.6974999999999998 14.066843261718754 0.7372499999999998 Q 14.096843261718753 0.7769999999999999 14.142593261718753 0.8002499999999999 Q 14.188343261718753 0.8234999999999999 14.251343261718754 0.8234999999999999 Q 14.314343261718752 0.8234999999999999 14.360843261718752 0.7994999999999999 Q 14.407343261718752 0.7754999999999999 14.436593261718754 0.7342499999999998 Q 14.465843261718753 0.6929999999999998 14.480093261718753 0.6427499999999998 Q 14.494343261718754 0.5924999999999998 14.494343261718754 0.5399999999999998 Q 14.494343261718754 0.4859999999999999 14.479343261718753 0.4364999999999998 Q 14.464343261718753 0.3869999999999998 14.434343261718753 0.34724999999999984 Q 14.404343261718754 0.3074999999999998 14.357843261718752 0.2849999999999998 Q 14.311343261718754 0.26249999999999984 14.249843261718754 0.26249999999999984 Q 14.186843261718753 0.26249999999999984 14.141093261718753 0.28649999999999987 Q 14.095343261718753 0.3104999999999998 14.065343261718754 0.35024999999999984 Q 14.035343261718753 0.3899999999999998 14.021093261718754 0.4402499999999998 Q 14.006843261718753 0.4904999999999998 14.006843261718753 0.5429999999999998 M 15.410865234375004 1.0829999999999997 Q 15.289365234375003 1.0829999999999997 15.190365234375005 1.0372499999999998 Q 15.091365234375004 0.9914999999999998 15.020115234375004 0.9142499999999998 Q 14.948865234375004 0.8369999999999999 14.910615234375003 0.7402499999999999 Q 14.872365234375003 0.6434999999999998 14.872365234375003 0.5399999999999998 Q 14.872365234375003 0.4334999999999999 14.912865234375003 0.3374999999999998 Q 14.953365234375005 0.24149999999999983 15.026115234375004 0.16574999999999984 Q 15.098865234375003 0.08999999999999986 15.198615234375003 0.046499999999999764 Q 15.298365234375003 0.0029999999999998916 15.416865234375004 0.0029999999999998916 Q 15.538365234375004 0.0029999999999998916 15.637365234375004 0.04874999999999985 Q 15.736365234375004 0.0944999999999998 15.806865234375003 0.17249999999999988 Q 15.877365234375004 0.25049999999999983 15.915615234375004 0.34724999999999984 Q 15.953865234375003 0.44399999999999984 15.953865234375003 0.5459999999999998 Q 15.953865234375003 0.6509999999999998 15.914115234375004 0.7469999999999999 Q 15.874365234375004 0.8429999999999999 15.801615234375003 0.9187499999999998 Q 15.728865234375004 0.9944999999999998 15.629865234375004 1.0387499999999998 Q 15.530865234375003 1.0829999999999997 15.410865234375004 1.0829999999999997 M 15.169365234375004 0.5429999999999998 Q 15.169365234375004 0.5969999999999998 15.184365234375004 0.6472499999999999 Q 15.199365234375003 0.6974999999999998 15.229365234375004 0.7372499999999998 Q 15.259365234375004 0.7769999999999999 15.305115234375004 0.8002499999999999 Q 15.350865234375004 0.8234999999999999 15.413865234375004 0.8234999999999999 Q 15.476865234375003 0.8234999999999999 15.523365234375003 0.7994999999999999 Q 15.569865234375003 0.7754999999999999 15.599115234375004 0.7342499999999998 Q 15.628365234375003 0.6929999999999998 15.642615234375004 0.6427499999999998 Q 15.656865234375005 0.5924999999999998 15.656865234375005 0.5399999999999998 Q 15.656865234375005 0.4859999999999999 15.641865234375004 0.4364999999999998 Q 15.626865234375003 0.3869999999999998 15.596865234375004 0.34724999999999984 Q 15.566865234375005 0.3074999999999998 15.520365234375003 0.2849999999999998 Q 15.473865234375005 0.26249999999999984 15.412365234375004 0.26249999999999984 Q 15.349365234375004 0.26249999999999984 15.303615234375004 0.28649999999999987 Q 15.257865234375004 0.3104999999999998 15.227865234375004 0.35024999999999984 Q 15.197865234375003 0.3899999999999998 15.183615234375004 0.4402499999999998 Q 15.169365234375004 0.4904999999999998 15.169365234375004 0.5429999999999998 M 16.093387207031252 1.0739999999999998 L 16.093387207031252 0.008999999999999897 L 16.582387207031253 0.008999999999999897 Q 16.660387207031253 0.008999999999999897 16.72638720703125 0.04049999999999976 Q 16.792387207031254 0.07199999999999984 16.840387207031252 0.12524999999999986 Q 16.888387207031254 0.17849999999999977 16.91463720703125 0.24449999999999983 Q 16.940887207031253 0.3104999999999998 16.940887207031253 0.3779999999999998 Q 16.940887207031253 0.4394999999999998 16.922887207031252 0.49649999999999983 Q 16.90488720703125 0.5534999999999999 16.870387207031253 0.6007499999999999 Q 16.835887207031252 0.6479999999999999 16.787887207031254 0.6824999999999999 L 17.012887207031252 1.0739999999999998 L 16.691887207031254 1.0739999999999998 L 16.504387207031254 0.7469999999999999 L 16.385887207031253 0.7469999999999999 L 16.385887207031253 1.0739999999999998 L 16.093387207031252 1.0739999999999998 M 16.385887207031253 0.4919999999999999 L 16.570387207031253 0.4919999999999999 Q 16.588387207031253 0.4919999999999999 16.604887207031254 0.4784999999999998 Q 16.62138720703125 0.46499999999999986 16.63263720703125 0.4394999999999998 Q 16.643887207031252 0.4139999999999998 16.643887207031252 0.3779999999999998 Q 16.643887207031252 0.3404999999999998 16.63113720703125 0.31574999999999986 Q 16.61838720703125 0.2909999999999998 16.599637207031254 0.27749999999999986 Q 16.580887207031253 0.2639999999999998 16.562887207031253 0.2639999999999998 L 16.385887207031253 0.2639999999999998 L 16.385887207031253 0.4919999999999999 M 17.935354248046878 0.2639999999999998 L 17.629354248046877 0.2639999999999998 L 17.629354248046877 1.0739999999999998 L 17.33685424804688 1.0739999999999998 L 17.33685424804688 0.2639999999999998 L 17.02935424804688 0.2639999999999998 L 17.02935424804688 0.008999999999999897 L 17.935354248046878 0.008999999999999897 L 17.935354248046878 0.2639999999999998 M 18.99888940429688 0.008999999999999897 L 18.99888940429688 1.0739999999999998 L 18.70638940429688 1.0739999999999998 L 18.70638940429688 0.6569999999999998 L 18.34938940429688 0.6569999999999998 L 18.34938940429688 1.0739999999999998 L 18.05688940429688 1.0739999999999998 L 18.05688940429688 0.008999999999999897 L 18.34938940429688 0.008999999999999897 L 18.34938940429688 0.4019999999999998 L 18.70638940429688 0.4019999999999998 L 18.70638940429688 0.008999999999999897 L 18.99888940429688 0.008999999999999897 M 19.41288940429688 0.008999999999999897 L 19.60338940429688 0.44399999999999984 L 19.79838940429688 0.008999999999999897 L 20.11638940429688 0.008999999999999897 L 19.74888940429688 0.7214999999999998 L 19.74888940429688 1.0739999999999998 L 19.45788940429688 1.0739999999999998 L 19.45788940429688 0.7184999999999999 L 19.09638940429688 0.008999999999999897 L 19.41288940429688 0.008999999999999897"
        fill="#382d5e" fill-rule="nonzero"></path>
    </g>
    <g></g>
    <g clip-path="url(&quot;#SvgjsClipPath1001&quot;)">
      <g clip-path="url(&quot;#SvgjsClipPath1000&quot;)">
        <path
          d=" M -0.7996163555988088 0.5100284167058006 C -0.791640339092167 0.5091889640181024 -0.7835769073527334 0.5099895884461291 -0.775921693639418 0.5123810781769449 L -0.6043454534937562 0.2251883314492883 C -0.6077128405151466 0.22181123250530735 -0.6106480922844708 0.21802927349483125 -0.613083910386581 0.21392916583738053 L -0.8779263731383571 0.2922391833769279 L -0.8779263731383571 0.29375160860837873 C -0.8750915901730155 0.3208359962324437 -0.8854006683362329 0.34763959945681194 -0.9056541690482828 0.36584387797418655 L -0.812555993690108 0.5127171726728226 C -0.8084062083309944 0.5113704859579629 -0.8041249130047137 0.5104691606261128 -0.7997844028467481 0.5100284167058006 Z M -0.7369347321175823 0.5851455365345083 L -0.5707360039059666 0.6805963733638287 C -0.5627007956626631 0.6727900432104948 -0.5522943456757168 0.6678824560007418 -0.5411596882687122 0.6666484517848971 L -0.5361182708305443 0.6666484517848971 L -0.5025088212427555 0.5490153782276354 C -0.5159518407876476 0.5420139548044897 -0.5267909450706949 0.5308803096441832 -0.5334295148635209 0.5172544483671768 L -0.7350862123902542 0.5686769062364925 C -0.7349789762173586 0.5743675197890884 -0.7357730184880831 0.580039250294262 -0.7374388738613994 0.5854816310303878 Z M -0.5836756419972657 0.7044590825711587 C -0.5850402716993679 0.7099499034982303 -0.585438327680367 0.7156364175125058 -0.5848519727328383 0.7212638073650524 L -0.5848519727328383 0.7227762325965014 L -0.7302128422000248 0.7864661395653634 C -0.7401820001226057 0.7726564900621964 -0.7551240081788242 0.7632574849945778 -0.7718885596888831 0.7602507688868871 L -0.7767619298791124 0.6248046870480986 C -0.7664798871979203 0.6217660343235415 -0.7572346470096172 0.615951417852911 -0.7500424174568204 0.607999962254205 L -0.5836756419972657 0.7044590825711587 Z M -0.5083904749206187 0.6738744834462699 C -0.49536421721223567 0.6821114731182601 -0.48682129292774334 0.695854438271574 -0.4851999547050436 0.7111809724887176 C -0.48245088687469084 0.7386473689228965 -0.5023015760663525 0.7632172785638989 -0.5297324754088641 0.7663004698126886 C -0.5464046849550486 0.7680229899931603 -0.5628428020374583 0.7613469730937917 -0.573592807120928 0.7484874615311619 L -0.7189536765881149 0.8121773685000221 C -0.7184546423267328 0.8142202207781395 -0.7181175025247241 0.8162992495571936 -0.7179453931004811 0.8183951166737633 C -0.7161109847643439 0.835733798683783 -0.7212430951588309 0.8530906673655047 -0.7322116364673085 0.8666437500167842 C -0.7431801777757857 0.8801968326680655 -0.7590857069333755 0.8888347484903457 -0.7764258353832338 0.890655433287511 C -0.806005886860599 0.8937057647326547 -0.8339619747887559 0.8765602822348464 -0.8446530180464447 0.8488116685507142 L -1.1113440005255502 0.8893110553039963 C -1.1141173566053757 0.9143076024638367 -1.1338951639807333 0.9340155235940508 -1.1589013716922714 0.9367003792227753 C -1.1743371517352497 0.9382804420033818 -1.1897058276508716 0.9331371401033306 -1.2010812309249468 0.9225844103959057 L -1.3733296600623641 1.0306387908206465 C -1.3723200297668718 1.03398063115166 -1.3716445307785918 1.0374144176754205 -1.3713130930870967 1.0408896729449229 C -1.3682779506189275 1.0703022138066536 -1.3896314763920379 1.0966181786678804 -1.419038511501757 1.099706209723553 C -1.448451052363488 1.1027413521917202 -1.4747670172247167 1.0813878264186094 -1.4778550482803874 1.051980791308889 C -1.480890190748557 1.0225682504471623 -1.4595366649754462 0.9962522855859351 -1.4301296298657276 0.9931642545302627 L -1.4249201651796204 0.9931642545302627 L -1.3928231408232825 0.8716660942704058 C -1.4077935479635317 0.8630779369668496 -1.4177321552922348 0.8478262376699699 -1.4195426532455744 0.8306625657733043 C -1.420970242176741 0.8176108795640379 -1.4174964724369319 0.8044944041671729 -1.4097959128651159 0.7938602184746759 L -1.5736419796055865 0.5935478989314559 C -1.5789941148086815 0.595834799135378 -1.584658470070701 0.5973075315035031 -1.5904467043994808 0.5979171273778668 C -1.6198928895480738 0.6009555169048352 -1.6462573463787618 0.5796235917198912 -1.64943128842605 0.5501917089632066 C -1.6524664308942199 0.5207791681014761 -1.631112905121109 0.49446320324024906 -1.6017058700113904 0.4913751721845766 C -1.5994683683678392 0.4912077275352127 -1.5972214817373838 0.4912077275352127 -1.5949839800938328 0.4913751721845766 L -1.5349911125796298 0.2843409627237978 C -1.5507035031214569 0.2750885156268473 -1.5611113136261254 0.2589470610118222 -1.5630550029854338 0.24081672550761052 C -1.5663954438749346 0.20956708394728438 -1.5438708282380844 0.18148639645334685 -1.5126408286037496 0.17796705477844738 C -1.4963748394907297 0.17611257791492546 -1.480109900383776 0.18145238811230177 -1.46810830789993 0.19258716534913808 L -1.3128326508043457 0.0897422496105033 C -1.3149054406325216 0.08434093620666672 -1.3162613659767326 0.07869124727245429 -1.3168657847548804 0.07293752481660977 C -1.3204885544334042 0.03772901993315722 -1.294929599917817 0.0062313671624805375 -1.2597297204556397 0.0025257279301925117 C -1.2300793564866503 -0.0005820849406191139 -1.2022077415880688 0.017186069557227346 -1.1925108212800621 0.04537777615462249 L -0.9636304695872205 0.019330452724086032 C -0.959999882890855 -0.004786119937350862 -0.9405021051470506 -0.02338506395537806 -0.9162411456684391 -0.025874256971491847 C -0.9020974179205911 -0.027424146778156633 -0.8879214374166869 -0.023251490511310566 -0.8768727904364431 -0.014286302675911489 C -0.8658241434561984 -0.0053211148405124115 -0.8588211320066009 0.007691468077766182 -0.8574246088898078 0.021851161443171924 C -0.8568341000956591 0.02659419117491081 -0.8568341000956591 0.031392147786237105 -0.8574246088898078 0.036135177517979546 L -0.6092188236839873 0.14939902262882856 C -0.5996428743091886 0.13753382953054386 -0.5857331097568546 0.1299741748825378 -0.5705679566580297 0.12839311663646033 C -0.5393859989521961 0.12505937037225112 -0.511402319314805 0.14762685395079314 -0.5080543804247426 0.17880729101814088 C -0.5056384871807618 0.20069120173839364 -0.51612495726582 0.22199184409866718 -0.5349419400949744 0.23342264659829792 L -0.4779739230436717 0.4160900051079327 C -0.4595203571036728 0.4141631442307029 -0.4410577268960869 0.4196511702181001 -0.4266529724464474 0.43134518313016973 C -0.4122482179968068 0.4430391960422411 -0.4030830367333016 0.4599798747720759 -0.40117633073557424 0.4784355340932801 C -0.399201948045401 0.4969162832377797 -0.4046681051215417 0.5154225222351017 -0.41636686558623515 0.5298646577952899 C -0.42806562605092857 0.5443067933554746 -0.44503386366722975 0.5534958448410099 -0.4635218597209225 0.5554011736493164 C -0.4677686916876054 0.555821296326256 -0.4720466185975991 0.555821296326256 -0.47629345056428196 0.5554011736493164 L -0.5099029001520707 0.6730342472065781 Z M -0.7517228899362097 0.5266650942517542 L -0.579978602542609 0.2396403947720374 C -0.5736559640259384 0.24149021876517035 -0.5670603854245755 0.24222937843601428 -0.5604851217816915 0.24182500899524556 L -0.5035171047303897 0.42449236750487856 C -0.527029626340416 0.43747347770729855 -0.5411095076261363 0.4626999316775465 -0.5398153102852019 0.4895266524572498 L -0.7414720078119348 0.5409491103265655 C -0.7442220972916148 0.5356570385731381 -0.7477956471859407 0.5308355823665084 -0.752058984432088 0.526665094251756 Z M -0.6206460365438331 0.18737770066302475 L -0.885488499295609 0.26551967095463413 C -0.8950126797428152 0.24584185071813042 -0.9118312884220185 0.23065084933046337 -0.9323736814705752 0.22317176447402168 L -0.9053180745524041 0.08066769822179656 L -0.9036376020730145 0.08066769822179656 C -0.8897053857641609 0.0792142755436696 -0.8769062883957918 0.07233174205313259 -0.868011585509959 0.06151031195675692 L -0.619637753056199 0.17477415706760593 C -0.6204876545180509 0.17891834562154937 -0.6208262749419495 0.18315110092028772 -0.6206460365438327 0.1873777006630283 Z M -0.9327097759664521 0.07562628078362656 C -0.9447699376185629 0.06974150788731882 -0.954184392047423 0.059547512645877376 -0.9590931938928663 0.04705824863400243 L -1.1879735455857086 0.07310557206454245 C -1.1887652622704183 0.08073489753421778 -1.1909887340363172 0.088146470087216 -1.1945273882553278 0.09495171429660419 L -1.0175736361756194 0.2389682057802784 C -1.0043788339008874 0.22741789005370944 -0.9879527975830537 0.22020216695694375 -0.9705204067527147 0.2182983942837879 C -0.9669397276854335 0.2180492429192923 -0.9633460619519035 0.2180492429192923 -0.9597653828846223 0.2182983942837879 L -0.9327097759664521 0.07596237527950254 Z M -1.2120043020409772 0.11646176203278819 C -1.2192258590831875 0.12229827830521292 -1.2276690117222053 0.12643370000595555 -1.2367072474880012 0.128561163884393 L -1.2313297355539556 0.43776810009205114 C -1.218113199132357 0.4401302064935893 -1.2058594204609652 0.4462570958292846 -1.1960398134867773 0.45541306112563995 L -1.0375712586803525 0.34046874353540385 C -1.04203083269821 0.3314072073702206 -1.0448202165346006 0.32161590084248265 -1.045805573829361 0.31156461688990555 C -1.0476420682371668 0.29406591502888557 -1.0439389877714622 0.27643219852553347 -1.0352185972092074 0.2611504425082232 L -1.2123403965368555 0.11629371478485373 Z M -0.8525512386995757 0.5747266071622923 L -1.1780587579573107 0.5303621337064114 C -1.1845845055302529 0.5491206606645015 -1.1986605733149722 0.5642935648999791 -1.216877672231207 0.5722058984432081 L -1.1622623166510504 0.8299903767815489 C -1.152388366314758 0.8305498007061005 -1.142856555690066 0.8338045653096562 -1.1347025679890637 0.8394010226661298 L -0.8466695850217135 0.5950603241629067 C -0.8498577526989699 0.588699383181525 -0.8518513324500989 0.5818072931847661 -0.8525512386995757 0.5747266071622941 Z M -1.1738575767588373 0.5028023850444242 L -1.1738575767588373 0.499945581829464 C -1.1746948655606109 0.4923333047885452 -1.1767369135837662 0.48490251892650593 -1.1799072776846398 0.4779313923494626 L -1.0212706756302765 0.3629870747592247 C -1.0033640532534511 0.38072016938188524 -0.9784434029764948 0.3894794078455663 -0.9533795874629426 0.386849783966553 C -0.9451029935115316 0.38599323968187094 -0.9370022073122574 0.38389723206387594 -0.9293488310076727 0.38063203579281174 L -0.8362506556494989 0.5276733777393876 C -0.8416699429148564 0.5332645585884279 -0.8459002085975122 0.5398957858747534 -0.8486861519969809 0.5471668585003086 L -1.1738575767588373 0.5028023850444242 Z M -0.8053299620287325 0.6263171122795494 C -0.8135853782172613 0.6246414168871945 -0.821381345191064 0.6212020196928717 -0.828184387748429 0.6162342774032111 L -1.1162173707157794 0.8607430231543776 L -1.1162173707157794 0.8619193538899506 L -0.8503666244763698 0.8212519198887253 C -0.8485674490100409 0.7928523555900635 -0.8286916400078782 0.7688385795260181 -0.8011287808302596 0.7617631941183379 L -0.806002151020489 0.6263171122795512 Z M -1.2590575314638819 0.43827224183587044 L -1.264435043397928 0.1290653056282123 C -1.2763087990284865 0.12646963035839562 -1.2872389825373118 0.12065570296008535 -1.2960279260104497 0.11226058083431881 L -1.4511355358580944 0.2151054965729518 C -1.4497145905133357 0.21935925562115058 -1.4487567792025142 0.223753919282565 -1.4482787326431326 0.22821318191218992 C -1.4468799552446996 0.24096874507179156 -1.4498415579253547 0.2538221007058328 -1.4566810950400797 0.2646794347149388 L -1.281743909935639 0.4475148404725116 C -1.2748348667266907 0.44299055331233045 -1.2671403822125242 0.43979876714348953 -1.259057531463881 0.43810419458793065 Z M -1.3113202255728933 0.5285136139790846 L -1.5422171442410022 0.5528804649302305 C -1.5434623751364336 0.5611467858479748 -1.5466913139021519 0.5689884942790072 -1.5516277901255826 0.5757348906499256 L -1.387613676137174 0.7760472101931456 C -1.382297029620452 0.7736579462090952 -1.3766160499606424 0.7721808914975442 -1.3708089513432786 0.7716779817467329 C -1.3671195398676637 0.7713421190398329 -1.3634072444549257 0.7713421190398329 -1.3597178329793098 0.7716779817467346 L -1.2812397681918228 0.5669964337571001 C -1.2953678966325466 0.5581015424558063 -1.3058561941059414 0.5444548372205344 -1.3108160838290766 0.5285136139790846 Z M -1.545073947455965 0.5251526690203052 L -1.3143450760357944 0.5007858180691593 C -1.3131382525459894 0.4887044989519568 -1.30885703926495 0.4771336522464469 -1.3019095796883118 0.46717636848137056 L -1.4773509065365702 0.2843409627237978 C -1.4841909174313404 0.28833727653359287 -1.4918162683131657 0.29080261554050096 -1.4997011905124495 0.29156699438517414 C -1.5023873292760273 0.29173476829709866 -1.5050813196499413 0.29173476829709866 -1.5077674584135186 0.29156699438517414 L -1.5677603259277215 0.49860120384595297 C -1.5576842188732756 0.5048139045250827 -1.5498993670033412 0.5141321363087936 -1.5455780891997808 0.5251526690203088 Z M -1.1886457345774641 0.8358720304594124 L -1.2432610901576209 0.5780875521210699 C -1.2474828734214254 0.5780992189090006 -1.2516984004811338 0.5777619767442236 -1.2558646337530415 0.5770792686334366 L -1.334342698540528 0.7815927693751313 C -1.3221200641154804 0.7905861465148382 -1.3142507174127243 0.8043117512289474 -1.3126646035564034 0.819403400161393 C -1.3124926549850429 0.8216407312501652 -1.3124926549850429 0.823887958990178 -1.3126646035564042 0.8261252900789501 L -1.2103238295615875 0.8557016057162058 C -1.2052115671562822 0.8472199954300607 -1.1978156680278573 0.8403482151375093 -1.188981829073342 0.8358720304594124 Z M -1.2178859557188404 0.8824211181384995 L -1.3200586824657181 0.8526767552533059 C -1.3287600409813827 0.8670377767118975 -1.343687724823771 0.8764919764787429 -1.3603900219710645 0.8782199369400249 L -1.3655994866571717 0.8782199369400249 L -1.3975284637655712 0.9997180971998817 C -1.3940377930117127 1.0017823142099238 -1.3907713034039473 1.0042040220225767 -1.3877817233851124 1.0069441288612562 L -1.215533294247695 0.8988897484365153 C -1.2165591640025155 0.8956093196902367 -1.217235114555766 0.8922295669239831 -1.2175498612229625 0.8888069135601788 C -1.2180540029667797 0.886958393832852 -1.2182220502147185 0.8846057323617059 -1.2182220502147185 0.8824211181384995 Z"
          fill="#c84449" transform="matrix(1,0,0,1,0,0)" fill-rule="evenodd"></path>
      </g>
    </g>
  </g>
  <defs>
    <clipPath id="SvgjsClipPath1001">
      <path
        d=" M -1.6490951939301715 -0.026210351467371384 h 1.2490951939301715 v 1.1264207029347426 h -1.2490951939301715 Z"></path>
    </clipPath>
    <clipPath id="SvgjsClipPath1000">
      <path
        d=" M -1.6490951939301715 -0.026210351467371273 L -0.3999999999999999 -0.026210351467371273 L -0.3999999999999999 1.1002103514673713 L -1.6490951939301715 1.1002103514673713 Z"></path>
    </clipPath>
  </defs>
</svg>